<svg version="1.1" width="256" height="256" viewBox="0 0 256 256" xmlns="http://www.w3.org/2000/svg">
	<desc>Created with Fabric.js 1.7.22</desc>
	<defs></defs>
	<g transform="translate(128 128) scale(0.72 0.72)" style="">
	  <g style="stroke: none; stroke-width: 0; stroke-dasharray: none; stroke-linecap: butt; stroke-linejoin: miter; stroke-miterlimit: 10; fill: none; fill-rule: nonzero; opacity: 1;" transform="translate(-175.05 -175.05000000000004) scale(3.89 3.89)">
		<path d="M 33.134 66.335 c -3.58 0.559 -7.156 2.602 -10.73 5.44 c -0.951 0.755 -2.323 -0.115 -2.05 -1.298 c 2.442 -10.583 8.71 -17.977 16.831 -23.333 c -0.934 6.461 -1.267 11.932 -1.182 15.719 C 36.041 64.572 34.824 66.071 33.134 66.335 z" style="stroke: none; stroke-width: 1; stroke-dasharray: none; stroke-linecap: butt; stroke-linejoin: miter; stroke-miterlimit: 10; fill: rgb(211,140,16); fill-rule: nonzero; opacity: 1;" transform=" matrix(1 0 0 1 0 0) " stroke-linecap="round"></path>
		<path d="M 56.862 66.335 c 3.58 0.559 7.156 2.602 10.73 5.44 c 0.951 0.755 2.323 -0.115 2.05 -1.298 c -2.442 -10.583 -8.71 -17.977 -16.831 -23.333 c 0.934 6.461 1.267 11.932 1.182 15.719 C 53.954 64.572 55.172 66.071 56.862 66.335 z" style="stroke: none; stroke-width: 1; stroke-dasharray: none; stroke-linecap: butt; stroke-linejoin: miter; stroke-miterlimit: 10; fill: rgb(211,140,16); fill-rule: nonzero; opacity: 1;" transform=" matrix(1 0 0 1 0 0) " stroke-linecap="round"></path>
		<path d="M 59.011 82.047 c 3.052 -8.7 4.868 -19.6 4.868 -31.434 c 0 -25.113 -8.176 -46.028 -19 -50.613 c -10.824 4.585 -19 25.5 -19 50.613 c 0 11.833 1.816 22.734 4.868 31.434 C 40.168 87.635 49.589 87.635 59.011 82.047 z" style="stroke: none; stroke-width: 1; stroke-dasharray: none; stroke-linecap: butt; stroke-linejoin: miter; stroke-miterlimit: 10; fill: rgb(184,14,58); fill-rule: nonzero; opacity: 1;" transform=" matrix(1 0 0 1 0 0) " stroke-linecap="round"></path>
		<path d="M 62.367 32.378 C 59.524 15.874 52.935 3.413 44.879 0 c -8.056 3.413 -14.645 15.874 -17.488 32.378 C 39.05 38.426 50.708 38.426 62.367 32.378 z" style="stroke: none; stroke-width: 1; stroke-dasharray: none; stroke-linecap: butt; stroke-linejoin: miter; stroke-miterlimit: 10; fill: rgb(142,9,44); fill-rule: nonzero; opacity: 1;" transform=" matrix(1 0 0 1 0 0) " stroke-linecap="round"></path>
		<path d="M 33.445 77.225 c -0.614 -2.783 -1.18 -6.548 -1.566 -11.02 l 0.944 0.26 l 0.633 -3.945 l -1.893 -0.946 c -6.931 6.826 -11.65 15.293 -11.998 26.149 c -0.018 0.564 0.3 0.993 0.724 1.198 l 0 0 l 1.945 0.97 l 0.387 -1.19 l -0.68 -0.232 c 2.924 -3.411 6 -6.057 9.36 -7.282 C 32.909 80.601 33.814 78.895 33.445 77.225 z" style="stroke: none; stroke-width: 1; stroke-dasharray: none; stroke-linecap: butt; stroke-linejoin: miter; stroke-miterlimit: 10; fill: rgb(179,119,15); fill-rule: nonzero; opacity: 1;" transform=" matrix(1 0 0 1 0 0) " stroke-linecap="round"></path>
		<path d="M 33.195 82.134 c -3.404 1.241 -6.517 3.938 -9.474 7.413 c -0.787 0.925 -2.301 0.337 -2.263 -0.877 c 0.348 -10.855 5.067 -19.323 11.998 -26.149 c 0.334 6.52 1.066 11.952 1.882 15.65 C 35.707 79.842 34.802 81.548 33.195 82.134 z" style="stroke: none; stroke-width: 1; stroke-dasharray: none; stroke-linecap: butt; stroke-linejoin: miter; stroke-miterlimit: 10; fill: rgb(211,140,16); fill-rule: nonzero; opacity: 1;" transform=" matrix(1 0 0 1 0 0) " stroke-linecap="round"></path>
		<path d="M 56.555 77.225 c 0.614 -2.783 1.18 -6.548 1.566 -11.02 l -0.944 0.26 l -0.633 -3.945 l 1.893 -0.946 c 6.931 6.826 11.65 15.293 11.998 26.149 c 0.018 0.564 -0.3 0.993 -0.724 1.198 l 0 0 l -1.945 0.97 l -0.387 -1.19 l 0.68 -0.232 c -2.924 -3.411 -6 -6.057 -9.36 -7.282 C 57.091 80.601 56.186 78.895 56.555 77.225 z" style="stroke: none; stroke-width: 1; stroke-dasharray: none; stroke-linecap: butt; stroke-linejoin: miter; stroke-miterlimit: 10; fill: rgb(211,140,16); fill-rule: nonzero; opacity: 1;" transform=" matrix(1 0 0 1 0 0) " stroke-linecap="round"></path>
		<path d="M 56.805 82.134 c 3.404 1.241 6.517 3.938 9.474 7.413 c 0.787 0.925 2.301 0.337 2.263 -0.877 c -0.348 -10.855 -5.067 -19.323 -11.998 -26.149 c -0.334 6.52 -1.066 11.952 -1.882 15.65 C 54.293 79.842 55.198 81.548 56.805 82.134 z" style="stroke: none; stroke-width: 1; stroke-dasharray: none; stroke-linecap: butt; stroke-linejoin: miter; stroke-miterlimit: 10; fill: rgb(179,119,15); fill-rule: nonzero; opacity: 1;" transform=" matrix(1 0 0 1 0 0) " stroke-linecap="round"></path>
		<circle cx="44.88" cy="50.730000000000004" r="8.24" style="stroke: none; stroke-width: 1; stroke-dasharray: none; stroke-linecap: butt; stroke-linejoin: miter; stroke-miterlimit: 10; fill: rgb(212,208,237); fill-rule: nonzero; opacity: 1;" transform="  matrix(1 0 0 1 0 0) "></circle>
		<path d="M 44.879 57.392 c -4.285 0 -7.805 -3.271 -8.202 -7.452 c -0.025 0.26 -0.038 0.523 -0.038 0.789 c 0 4.551 3.689 8.24 8.24 8.24 s 8.24 -3.689 8.24 -8.24 c 0 -0.266 -0.014 -0.529 -0.038 -0.789 C 52.684 54.121 49.164 57.392 44.879 57.392 z" style="stroke: none; stroke-width: 1; stroke-dasharray: none; stroke-linecap: butt; stroke-linejoin: miter; stroke-miterlimit: 10; fill: rgb(249,249,249); fill-rule: nonzero; opacity: 1;" transform=" matrix(1 0 0 1 0 0) " stroke-linecap="round"></path>
	  </g>
	</g>
  </svg>